<svg height="467" viewBox="-.09687818 -.08487818 107.12473053 20.08403696" width="2500" xmlns="http://www.w3.org/2000/svg"><path d="m44.592 10a4.369 4.369 0 1 0 -8.737 0v6.417a.47.47 0 0 0 .469.47h.937a.469.469 0 0 0 .469-.47v-2a.47.47 0 0 1 .675-.421 4.422 4.422 0 0 0 4.913-.9 4.227 4.227 0 0 0 1.275-3.1m-1.872 0a2.5 2.5 0 1 1 -.731-1.77 2.413 2.413 0 0 1 .731 1.77m25.586-6.413v2a.471.471 0 0 1 -.675.421 4.41 4.41 0 1 0 2.547 4v-6.421a.47.47 0 0 0 -.469-.47h-.937a.468.468 0 0 0 -.467.47m0 6.415a2.5 2.5 0 1 1 -.731-1.77 2.414 2.414 0 0 1 .731 1.77m11.858 0a4.366 4.366 0 1 0 -1.277 3.1 4.233 4.233 0 0 0 1.277-3.1m-1.872 0a2.5 2.5 0 1 1 -.731-1.77 2.413 2.413 0 0 1 .731 1.77m-50.55.001a2.5 2.5 0 1 0 4.992 0v-3.913a.47.47 0 0 1 .469-.47h.937a.469.469 0 0 1 .469.47v3.912a4.369 4.369 0 1 1 -8.737 0v-3.912a.47.47 0 0 1 .469-.47h.935a.469.469 0 0 1 .469.47v3.912zm61.471 2.719a4.7 4.7 0 0 1 -.342.382 4.369 4.369 0 0 1 -7.46-3.1v-3.913a.47.47 0 0 1 .469-.47h.935a.469.469 0 0 1 .469.47v3.912a2.5 2.5 0 1 0 4.992 0v-3.912a.47.47 0 0 1 .469-.47h.935a.469.469 0 0 1 .469.47v3.912a2.5 2.5 0 1 0 4.992 0v-3.912a.47.47 0 0 1 .469-.47h.935a.469.469 0 0 1 .469.47v3.912a4.368 4.368 0 0 1 -7.46 3.1 4.719 4.719 0 0 1 -.34-.382zm10.454 1.663h-.931a.469.469 0 0 1 -.469-.47v-3.912a4.369 4.369 0 1 1 8.737 0v3.912a.47.47 0 0 1 -.469.47h-.937a.469.469 0 0 1 -.469-.47v-3.911a2.5 2.5 0 1 0 -4.992 0v3.912a.466.466 0 0 1 -.467.469m-51.49-6.886a.469.469 0 0 0 -.469.47v2.035a2.515 2.515 0 0 0 2.103 2.474.479.479 0 0 1 .395.479v.935a.473.473 0 0 1 -.528.467 4.386 4.386 0 0 1 -3.838-4.358v-6.413a.47.47 0 0 1 .469-.47h.937a.469.469 0 0 1 .469.47v1.566a.47.47 0 0 0 .469.47h1.561a.469.469 0 0 1 .469.47v.939a.47.47 0 0 1 -.469.47h-1.564zm10.736-.597a4.4 4.4 0 1 0 1.277 3.1 4.207 4.207 0 0 0 -1.277-3.1zm-1.326 4.871a2.509 2.509 0 1 1 .731-1.77 2.4 2.4 0 0 1 -.731 1.769z" fill="#545860"/><path d="m9.428 5.98a.812.812 0 0 0 1.148 0l2.3-2.3a.812.812 0 0 0 0-1.148l-2.3-2.3a.812.812 0 0 0 -1.148 0l-2.3 2.3a.812.812 0 0 0 0 1.148zm10.334 3.446-2.3-2.3a.812.812 0 0 0 -1.148 0l-2.3 2.3a.812.812 0 0 1 -1.149 0l-2.3-2.3a.812.812 0 0 0 -1.149 0l-2.3 2.3a.812.812 0 0 1 -1.148 0l-2.3-2.3a.812.812 0 0 0 -1.148 0l-2.3 2.3a.812.812 0 0 0 0 1.148l2.871 2.871 3.445 3.445 2.871 2.871a.812.812 0 0 0 1.149 0l2.871-2.871 3.445-3.445 2.871-2.871a.812.812 0 0 0 .019-1.148z" fill="#00aad5"/></svg>